<?xml version="1.0" standalone="no"?><!DOCTYPE svg PUBLIC "-//W3C//DTD SVG 1.1//EN" "http://www.w3.org/Graphics/SVG/1.1/DTD/svg11.dtd"><svg t="1727443255341" class="icon" viewBox="0 0 1024 1024" version="1.1" xmlns="http://www.w3.org/2000/svg" p-id="5548" xmlns:xlink="http://www.w3.org/1999/xlink" width="32" height="32"><path d="M956.200421 705.050947H185.182316a32.525474 32.525474 0 1 1 0-65.050947h702.706526c-19.509895-68.311579-100.864-120.373895-195.206737-120.373895H188.442947a32.525474 32.525474 0 0 1 0-65.077894h504.239158c146.405053 0 266.778947 97.603368 266.778948 217.977263v32.525473z" fill="#2c2c2c" p-id="5549"></path><path d="M647.141053 519.518316h-211.456l-91.082106-120.373895a64.458105 64.458105 0 0 1-6.494315-71.57221 72.892632 72.892632 0 0 1 61.817263-39.046737h39.046737a63.919158 63.919158 0 0 1 55.296 29.291789z m-178.930527-65.077895h48.801685l-74.832843-100.837053-3.260631-3.260631h-39.046737a3.179789 3.179789 0 0 0-3.260632 3.260631v6.494316zM435.685053 883.873684h-29.29179a71.168 71.168 0 0 1-65.077895-42.280421 74.994526 74.994526 0 0 1 6.494316-78.147368l84.58779-113.852632h211.456l-152.980211 201.754948a54.433684 54.433684 0 0 1-55.18821 32.525473z m32.525473-165.914947l-65.077894 87.848421a6.090105 6.090105 0 0 0 0 9.754947c0 3.260632 3.260632 3.260632 6.494315 3.260632h29.29179c3.260632 0 6.494316 0 6.494316-3.260632l74.832842-97.603368zM188.442947 704.943158h-133.389473V314.556632h91.082105A73.620211 73.620211 0 0 1 220.968421 389.389474v78.147368a32.525474 32.525474 0 0 1-65.077895 0v-78.147368a8.623158 8.623158 0 0 0-9.754947-9.754948h-26.031158v260.257685h68.311579a30.746947 30.746947 0 0 1 32.525474 32.525473 32.606316 32.606316 0 0 1-32.498527 32.525474z" fill="#2c2c2c" p-id="5550"></path><path d="M660.156632 613.861053h-133.389474a32.525474 32.525474 0 0 1 0-65.050948h133.389474a32.525474 32.525474 0 1 1 0 65.050948z" fill="#2c2c2c" p-id="5551"></path></svg>