<?xml version="1.0" standalone="no"?><!DOCTYPE svg PUBLIC "-//W3C//DTD SVG 1.1//EN" "http://www.w3.org/Graphics/SVG/1.1/DTD/svg11.dtd"><svg t="1726751594515" class="icon" viewBox="0 0 1024 1024" version="1.1" xmlns="http://www.w3.org/2000/svg" p-id="4198" xmlns:xlink="http://www.w3.org/1999/xlink" width="32" height="32"><path d="M506.88 818.176c-172.544 0-312.832-140.288-312.832-312.832S334.336 192.512 506.88 192.512s312.832 140.288 312.832 312.832-140.288 312.832-312.832 312.832z m0-584.192c-150.016 0-271.872 121.856-271.872 271.872s121.856 271.872 271.872 271.872 271.872-121.856 271.872-271.872S656.896 233.984 506.88 233.984z" fill="#989b9e" p-id="4199"></path><path d="M508.416 705.024c-68.096 0-133.12-25.088-183.296-71.68-8.192-7.68-8.704-20.48-1.024-29.184 7.68-8.192 20.48-8.704 29.184-1.024 44.032 40.96 101.888 62.464 161.792 60.928 55.296-1.536 108.032-22.528 148.48-59.392 8.192-7.68 21.504-7.168 29.184 1.536 7.68 8.192 7.168 21.504-1.536 29.184-48.128 43.52-110.08 68.608-175.104 70.144-3.072-0.512-5.12-0.512-7.68-0.512z" fill="#989b9e" p-id="4200"></path><path d="M725.504 567.296m-26.112 0a26.112 26.112 0 1 0 52.224 0 26.112 26.112 0 1 0-52.224 0Z" fill="#989b9e" p-id="4201"></path><path d="M512 909.312c-14.336 0-28.672-0.512-43.008-2.048l3.072-30.72c13.312 1.536 26.624 2.048 39.424 2.048 205.312 0 372.224-166.912 372.224-372.224S717.312 134.656 512 134.656 139.776 301.056 139.776 506.368h-30.72c0-222.208 180.736-402.944 402.944-402.944s402.944 180.736 402.944 402.944c0 222.208-180.736 402.944-402.944 402.944z" fill="#989b9e" p-id="4202"></path><path d="M142.336 549.376c-2.56 0-5.12-0.512-8.192-0.512-3.584-0.512-7.168-1.024-10.752-2.048-31.232-8.704-53.76-37.376-53.76-71.168 0-40.96 33.28-74.24 74.24-74.24M909.824 546.816c31.232-8.704 54.272-37.376 54.272-71.68 0-40.96-33.28-74.24-74.24-74.24" fill="#989b9e" p-id="4203"></path><path d="M473.6 892.928m-39.936 0a39.936 39.936 0 1 0 79.872 0 39.936 39.936 0 1 0-79.872 0Z" fill="#989b9e" p-id="4204"></path></svg>