<?xml version="1.0" standalone="no"?><!DOCTYPE svg PUBLIC "-//W3C//DTD SVG 1.1//EN" "http://www.w3.org/Graphics/SVG/1.1/DTD/svg11.dtd"><svg t="1726888807519" class="icon" viewBox="0 0 1024 1024" version="1.1" xmlns="http://www.w3.org/2000/svg" p-id="7510" xmlns:xlink="http://www.w3.org/1999/xlink" width="32" height="32"><path d="M512 23.273c205.661 0 372.364 166.888 372.364 372.782 0 148.434-193.536 444.3-301.568 571.858A92.416 92.416 0 0 1 512 1000.727a92.416 92.416 0 0 1-70.796-32.814C333.172 840.378 139.636 544.489 139.636 396.055 139.636 190.161 306.34 23.273 512 23.273z m17.524 899.514c116.201-137.24 285.021-410.67 285.021-526.732C814.545 229.004 678.82 93.091 512 93.091S209.455 229.004 209.455 396.055c0 116.061 168.82 389.493 285.02 526.732A22.714 22.714 0 0 0 512 930.932a22.714 22.714 0 0 0 17.524-8.145zM512 210.548a162.91 162.91 0 1 1 0 325.819 162.91 162.91 0 0 1 0-325.819z m0 256c51.34 0 93.09-41.75 93.09-93.09s-41.75-93.091-93.09-93.091-93.09 41.75-93.09 93.09 41.75 93.091 93.09 93.091z" fill="#989b9e" p-id="7511"></path></svg>