<?xml version="1.0" standalone="no"?><!DOCTYPE svg PUBLIC "-//W3C//DTD SVG 1.1//EN" "http://www.w3.org/Graphics/SVG/1.1/DTD/svg11.dtd"><svg t="1726890155896" class="icon" viewBox="0 0 1024 1024" version="1.1" xmlns="http://www.w3.org/2000/svg" p-id="15470" xmlns:xlink="http://www.w3.org/1999/xlink" width="32" height="32"><path d="M192.1 585.5c-6.6 0-13.1-2.6-18.1-7.7L103.3 504c-9.6-10-9.2-25.8 0.7-35.3 10-9.6 25.8-9.2 35.3 0.7l70.8 73.9c9.6 10 9.2 25.8-0.7 35.3-4.8 4.6-11.1 6.9-17.3 6.9z m8.5 6c-6.7 0-13.3-2.6-18.2-7.9-9.4-10.1-8.9-25.9 1.1-35.3l78.7-73.8c10.1-9.4 25.9-8.9 35.3 1.1 9.4 10.1 8.9 25.9-1.1 35.3l-78.7 73.8c-4.8 4.5-10.9 6.8-17.1 6.8z m343.9 295.2c-16.6 0-30-13.4-30-30s13.4-30 30-30c174.1 0 315.7-141.6 315.7-315.7S718.6 195.2 544.5 195.2 228.8 336.8 228.8 510.9c0 16.6-13.4 30-30 30s-30-13.4-30-30c0-50.7 9.9-99.9 29.5-146.3 18.9-44.7 46-84.9 80.5-119.4s74.7-61.6 119.4-80.5c46.3-19.6 95.6-29.5 146.3-29.5s99.9 9.9 146.3 29.5c44.7 18.9 84.9 46 119.4 80.5s61.6 74.7 80.5 119.4c19.6 46.3 29.5 95.6 29.5 146.3s-9.9 99.9-29.5 146.3c-18.9 44.7-46 84.9-80.5 119.4s-74.7 61.6-119.4 80.5c-46.3 19.7-95.5 29.6-146.3 29.6z m124.7-359.5H431.1c-16.6 0-30-13.4-30-30s13.4-30 30-30h238.1c16.6 0 30 13.4 30 30s-13.5 30-30 30z m-1 102H430.1c-16.6 0-30-13.4-30-30s13.4-30 30-30h238.1c16.6 0 30 13.4 30 30s-13.4 30-30 30zM549.1 745.7c-16.6 0-30-13.4-30-30V497.2c0-16.6 13.4-30 30-30s30 13.4 30 30v218.5c0 16.5-13.4 30-30 30z m1.1-242.5c-7.9 0-15.8-3.1-21.7-9.3L413.6 373.4c-11.4-12-11-31 1-42.4s31-11 42.4 1l114.9 120.5c11.4 12 11 31-1 42.4-5.8 5.6-13.2 8.3-20.7 8.3z m-1.6-0.9c-7.6 0-15.3-2.9-21.1-8.7-11.8-11.7-11.9-30.6-0.2-42.4l120.2-121.5c11.7-11.8 30.7-11.9 42.4-0.2 11.8 11.7 11.9 30.6 0.2 42.4L569.9 493.4c-5.8 6-13.5 8.9-21.3 8.9z" fill="#333333" p-id="15471"></path></svg>