<?xml version="1.0" standalone="no"?><!DOCTYPE svg PUBLIC "-//W3C//DTD SVG 1.1//EN" "http://www.w3.org/Graphics/SVG/1.1/DTD/svg11.dtd"><svg t="1726889219553" class="icon" viewBox="0 0 1024 1024" version="1.1" xmlns="http://www.w3.org/2000/svg" p-id="9680" xmlns:xlink="http://www.w3.org/1999/xlink" width="32" height="32"><path d="M501.4016 610.304c0.682667-0.119467 1.365333-0.170667 2.065067-0.170667H648.533333c16.4864 0 29.866667 13.380267 29.866667 29.866667V699.733333A46.933333 46.933333 0 0 1 631.466667 746.666667h-45.704534a12.8 12.8 0 0 1 0-25.6H631.466667c11.776 0 21.333333-9.557333 21.333333-21.333334v-59.733333a4.266667 4.266667 0 0 0-4.266667-4.266667h-76.4416c-5.205333 61.883733-47.735467 110.933333-100.8128 110.933334a12.8 12.8 0 1 1 0-25.6c37.853867 0 70.212267-36.778667 75.1104-85.333334H503.466667a12.8 12.8 0 0 1-9.147734-21.76 130.4576 130.4576 0 0 1-57.105066 13.226667 12.8 12.8 0 1 1 0-25.6c27.4944 0 53.162667-11.025067 74.3424-29.866667H443.733333a12.8 12.8 0 1 1 0-25.6h90.4704c8.055467-11.4688 14.8992-24.3712 20.241067-38.4H460.8a12.8 12.8 0 1 1 0-25.6h101.410133c3.413333-14.848 5.256533-30.6176 5.256534-46.933333a12.8 12.8 0 1 1 25.6 0c0 16.1792-1.621333 31.8976-4.676267 46.933333H699.733333a12.8 12.8 0 1 1 0 25.6h-118.152533c-4.5056 13.653333-10.257067 26.5216-17.083733 38.4H716.8a12.8 12.8 0 1 1 0 25.6h-67.84c21.6064 19.285333 47.394133 29.866667 74.359467 29.866667a12.8 12.8 0 1 1 0 25.6c-41.813333 0-80.827733-20.292267-109.6704-55.466667h-66.747734a159.163733 159.163733 0 0 1-45.499733 38.570667zM222.941867 290.133333a17.015467 17.015467 0 0 1 5.922133-2.901333l590.967467-158.344533a51.2 51.2 0 0 1 62.72 36.1984L916.053333 290.133333H938.666667a51.2 51.2 0 0 1 51.2 51.2v136.533334a17.066667 17.066667 0 0 1-17.066667 17.066666 85.333333 85.333333 0 0 0 0 170.666667 17.066667 17.066667 0 0 1 17.066667 17.066667v136.533333a51.2 51.2 0 0 1-51.2 51.2H85.333333a51.2 51.2 0 0 1-51.2-51.2v-136.533333a17.066667 17.066667 0 0 1 17.066667-17.066667 85.333333 85.333333 0 0 0 0-170.666667 17.066667 17.066667 0 0 1-17.066667-17.066666v-136.533334a51.2 51.2 0 0 1 51.2-51.2h137.608534z m657.7664 0l-31.1296-116.224a17.066667 17.066667 0 0 0-20.906667-12.049066L349.917867 290.133333h530.7904zM853.333333 580.266667a119.5008 119.5008 0 0 1 102.4-118.272V341.333333a17.066667 17.066667 0 0 0-17.066666-17.066666H85.333333a17.066667 17.066667 0 0 0-17.066666 17.066666v120.661334a119.5008 119.5008 0 0 1 0 236.544V819.2a17.066667 17.066667 0 0 0 17.066666 17.066667h853.333334a17.066667 17.066667 0 0 0 17.066666-17.066667v-120.661333A119.5008 119.5008 0 0 1 853.333333 580.266667zM247.466667 358.4a17.066667 17.066667 0 0 1 34.133333 0v17.066667a17.066667 17.066667 0 0 1-34.133333 0v-17.066667z m0 85.333333a17.066667 17.066667 0 0 1 34.133333 0v17.066667a17.066667 17.066667 0 0 1-34.133333 0v-17.066667z m0 85.333334a17.066667 17.066667 0 0 1 34.133333 0v17.066666a17.066667 17.066667 0 0 1-34.133333 0v-17.066666z m0 85.333333a17.066667 17.066667 0 0 1 34.133333 0v17.066667a17.066667 17.066667 0 0 1-34.133333 0v-17.066667z m0 85.333333a17.066667 17.066667 0 0 1 34.133333 0v17.066667a17.066667 17.066667 0 0 1-34.133333 0v-17.066667z m0 85.333334a17.066667 17.066667 0 0 1 34.133333 0v17.066666a17.066667 17.066667 0 0 1-34.133333 0v-17.066666z m221.866666-332.8a12.8 12.8 0 1 1 0-25.6h51.2a12.8 12.8 0 1 1 0 25.6h-51.2z m170.666667 0a12.8 12.8 0 1 1 0-25.6h51.2a12.8 12.8 0 1 1 0 25.6h-51.2z" fill="#989b9e" p-id="9681"></path></svg>