<?xml version="1.0" standalone="no"?><!DOCTYPE svg PUBLIC "-//W3C//DTD SVG 1.1//EN" "http://www.w3.org/Graphics/SVG/1.1/DTD/svg11.dtd"><svg t="1726146692532" class="icon" viewBox="0 0 1024 1024" version="1.1" xmlns="http://www.w3.org/2000/svg" p-id="4973" xmlns:xlink="http://www.w3.org/1999/xlink" width="32" height="32"><path d="M872.05218506 497.50628662L531.23156739 195.99255372c-10.98110962-9.71054078-27.48284912-9.71960449-38.45489502 0L151.94287109 497.50628662a29.03521729 29.03521729 0 0 0-7.91180419 32.01800537 29.01791382 29.01791382 0 0 0 27.1392517 18.73718262h55.48233033v161.28479004c0 69.33911133 56.40765381 125.74758911 125.74841308 125.74758911h216.53970337c0.14501953 0 0.28015137-0.04037476 0.42434692-0.04202271 42.27566528-0.45977783 76.53900146-34.95712281 76.53900147-77.34072876v-140.31463622c0-42.66870117-34.71487427-77.38357544-77.38439942-77.38357544H455.48358154c-42.66870117 0-77.38357544 34.71405029-77.38357544 77.38357544v90.2680664c0 16.02548218 12.99325562 29.01873779 29.0187378 29.01873779 16.02548218 0 29.01873779-12.99407959 29.01873779-29.01873779V617.59646607c0-10.67047119 8.67645263-19.34609985 19.34609985-19.34609985h113.03778076c10.67047119 0 19.34609985 8.67645263 19.34609986 19.34609985v140.31463622c0 10.66882325-8.67645263 19.34527588-19.34609986 19.34527588h-216.12030029c-37.33511352 0-67.71011352-30.375-67.71011352-67.7109375V519.24273682c0-16.02548218-12.99407959-29.01873779-29.01873779-29.01873779h-7.90191651l264.23464966-233.75088502 264.22393799 233.75088502h-7.89202882c-16.02548218 0-29.01873779 12.99407959-29.01873779 29.01873779v190.30352782c0 23.4173584-11.85452271 44.86047363-31.70654296 57.35687257-13.56427002 8.54049682-17.63552857 26.45452881-9.10079956 40.0196228 8.52978516 13.56015015 26.45947266 17.62152099 40.01879882 9.10079956 36.83578492-23.19076538 58.82601929-62.99203492 58.82601929-106.47729493v-161.28479003h55.4732666a29.02532959 29.02532959 0 0 0 27.13925171-18.73635864 29.01956177 29.01956177 0 0 0-7.91592407-32.01800537z" fill="#989b9e" p-id="4974"></path></svg>