<?xml version="1.0" standalone="no"?><!DOCTYPE svg PUBLIC "-//W3C//DTD SVG 1.1//EN" "http://www.w3.org/Graphics/SVG/1.1/DTD/svg11.dtd"><svg t="1726888974696" class="icon" viewBox="0 0 1024 1024" version="1.1" xmlns="http://www.w3.org/2000/svg" p-id="8582" xmlns:xlink="http://www.w3.org/1999/xlink" width="32" height="32"><path d="M725.12 1019.52H208.96a96 96 0 0 1-96-96V275.52a96 96 0 0 1 96-96h56a24 24 0 0 1 23.04 24v544a48 48 0 0 0 48 47.68h460.8a24 24 0 0 1 24 24v103.68a96 96 0 0 1-95.68 96.64zM208.96 227.52A48 48 0 0 0 160 275.52v648a48 48 0 0 0 48 48h517.12a48 48 0 0 0 47.68-48v-79.68H336.96a96 96 0 0 1-96-96V227.52z" fill="#989b9e" p-id="8583"></path><path d="M853.12 843.84H336.96a96 96 0 0 1-96-96V99.84a96 96 0 0 1 96-96H713.6a24 24 0 0 1 22.4 24.32v150.4a36.8 36.8 0 0 0 38.4 36.8h150.4a24 24 0 0 1 24 24v508.8a96 96 0 0 1-95.68 95.68zM336.96 52.16A48 48 0 0 0 288 99.84v648.32a48 48 0 0 0 48 47.68h517.12a47.68 47.68 0 0 0 47.68-47.68V263.36h-128a84.8 84.8 0 0 1-84.8-84.8v-128z" fill="#989b9e" p-id="8584"></path><path d="M740.16 448h-316.8a24 24 0 0 1 0-48h316.8a24 24 0 0 1 0 48zM740.16 608h-316.8a24 24 0 0 1 0-48h316.8a24 24 0 0 1 0 48zM924.8 263.36a24 24 0 0 1-16.96-7.36l-211.2-211.2A24 24 0 1 1 730.56 11.2l211.2 211.2a24 24 0 0 1-16.96 40.96z" fill="#989b9e" p-id="8585"></path></svg>